{
	"asset":{
		"generator":"Khronos glTF Blender I/O v3.5.30",
		"version":"2.0"
	},
	"extensionsUsed":[
		"KHR_materials_specular",
		"KHR_materials_ior"
	],
	"scene":0,
	"scenes":[
		{
			"name":"Scene",
			"nodes":[
				0,
				1,
				2
			]
		}
	],
	"nodes":[
		{
			"mesh":0,
			"name":"Donut"
		},
		{
			"mesh":1,
			"name":"Icing",
			"rotation":[
				0.9996736645698547,
				0.019191786646842957,
				0.004993176553398371,
				0.0161101296544075
			],
			"translation":[
				-0.0015668511623516679,
				-0.0017337729223072529,
				-0.00553012453019619
			]
		},
		{
			"mesh":2,
			"name":"Plane",
			"translation":[
				0.0007651564665138721,
				-0.027818242087960243,
				0.00025169504806399345
			]
		}
	],
	"materials":[
		{
			"doubleSided":true,
			"name":"Material.002",
			"pbrMetallicRoughness":{
				"baseColorFactor":[
					0.8000000715255737,
					0.277985543012619,
					0.07374700903892517,
					1
				],
				"metallicFactor":0,
				"roughnessFactor":0.5
			}
		},
		{
			"doubleSided":true,
			"extensions":{
				"KHR_materials_specular":{
					"specularColorFactor":[
						1.942494976929276,
						1.942494976929276,
						1.942494976929276
					]
				},
				"KHR_materials_ior":{
					"ior":1.4500000476837158
				}
			},
			"name":"Material.001",
			"pbrMetallicRoughness":{
				"baseColorFactor":[
					0.8000000715255737,
					0.20760178565979004,
					0.6958943605422974,
					1
				],
				"metallicFactor":0,
				"roughnessFactor":0.19148936867713928
			}
		},
		{
			"doubleSided":true,
			"name":"Material.003",
			"pbrMetallicRoughness":{
				"baseColorFactor":[
					0.8000000715255737,
					0.2297489047050476,
					0.4620993733406067,
					1
				],
				"metallicFactor":0,
				"roughnessFactor":0.5
			}
		}
	],
	"meshes":[
		{
			"name":"Torus.001",
			"primitives":[
				{
					"attributes":{
						"POSITION":0,
						"TEXCOORD_0":1,
						"NORMAL":2
					},
					"indices":3,
					"material":0
				}
			]
		},
		{
			"name":"Torus.002",
			"primitives":[
				{
					"attributes":{
						"POSITION":4,
						"TEXCOORD_0":5,
						"NORMAL":6
					},
					"indices":7,
					"material":1
				}
			]
		},
		{
			"name":"Plane",
			"primitives":[
				{
					"attributes":{
						"POSITION":8,
						"TEXCOORD_0":9,
						"NORMAL":10
					},
					"indices":11,
					"material":2
				}
			]
		}
	],
	"accessors":[
		{
			"bufferView":0,
			"componentType":5126,
			"count":697,
			"max":[
				0.05249647796154022,
				0.022794084623456,
				0.05370989814400673
			],
			"min":[
				-0.05037389323115349,
				-0.029656589031219482,
				-0.05280747264623642
			],
			"type":"VEC3"
		},
		{
			"bufferView":1,
			"componentType":5126,
			"count":697,
			"type":"VEC2"
		},
		{
			"bufferView":2,
			"componentType":5126,
			"count":697,
			"type":"VEC3"
		},
		{
			"bufferView":3,
			"componentType":5123,
			"count":3840,
			"type":"SCALAR"
		},
		{
			"bufferView":4,
			"componentType":5126,
			"count":7114,
			"max":[
				0.05328260362148285,
				0.005192731041461229,
				0.04491381719708443
			],
			"min":[
				-0.048243071883916855,
				-0.026593772694468498,
				-0.05545440688729286
			],
			"type":"VEC3"
		},
		{
			"bufferView":5,
			"componentType":5126,
			"count":7114,
			"type":"VEC2"
		},
		{
			"bufferView":6,
			"componentType":5126,
			"count":7114,
			"type":"VEC3"
		},
		{
			"bufferView":7,
			"componentType":5123,
			"count":42384,
			"type":"SCALAR"
		},
		{
			"bufferView":8,
			"componentType":5126,
			"count":4,
			"max":[
				1,
				0,
				1
			],
			"min":[
				-1,
				0,
				-1
			],
			"type":"VEC3"
		},
		{
			"bufferView":9,
			"componentType":5126,
			"count":4,
			"type":"VEC2"
		},
		{
			"bufferView":10,
			"componentType":5126,
			"count":4,
			"type":"VEC3"
		},
		{
			"bufferView":11,
			"componentType":5123,
			"count":6,
			"type":"SCALAR"
		}
	],
	"bufferViews":[
		{
			"buffer":0,
			"byteLength":8364,
			"byteOffset":0,
			"target":34962
		},
		{
			"buffer":0,
			"byteLength":5576,
			"byteOffset":8364,
			"target":34962
		},
		{
			"buffer":0,
			"byteLength":8364,
			"byteOffset":13940,
			"target":34962
		},
		{
			"buffer":0,
			"byteLength":7680,
			"byteOffset":22304,
			"target":34963
		},
		{
			"buffer":0,
			"byteLength":85368,
			"byteOffset":29984,
			"target":34962
		},
		{
			"buffer":0,
			"byteLength":56912,
			"byteOffset":115352,
			"target":34962
		},
		{
			"buffer":0,
			"byteLength":85368,
			"byteOffset":172264,
			"target":34962
		},
		{
			"buffer":0,
			"byteLength":84768,
			"byteOffset":257632,
			"target":34963
		},
		{
			"buffer":0,
			"byteLength":48,
			"byteOffset":342400,
			"target":34962
		},
		{
			"buffer":0,
			"byteLength":32,
			"byteOffset":342448,
			"target":34962
		},
		{
			"buffer":0,
			"byteLength":48,
			"byteOffset":342480,
			"target":34962
		},
		{
			"buffer":0,
			"byteLength":12,
			"byteOffset":342528,
			"target":34963
		}
	],
	"buffers":[
		{
			"byteLength":342540,
			"uri":"data:application/octet-stream;base64,"
		}
	]
}
